<svg viewBox="0 0 66.1211 49.501" xmlns="http://www.w3.org/2000/svg" xmlns:xlink="http://www.w3.org/1999/xlink" width="66.121094" height="49.500977" fill="none" customFrame="#000000">
	<path id="Email marketing" d="M33.1925 31.4056C31.179 31.439 29.2227 30.7347 27.6925 29.4256L22.9625 25.2731C22.688 25.0383 22.4625 24.7518 22.2988 24.4299C22.135 24.108 22.0363 23.757 22.0082 23.397C21.9515 22.6698 22.1859 21.9499 22.66 21.3956C23.1341 20.8413 23.8089 20.498 24.5361 20.4413C25.2633 20.3845 25.9832 20.619 26.5375 21.0931L31.405 25.2731C31.8949 25.6705 32.5066 25.8874 33.1375 25.8874C33.7684 25.8874 34.3801 25.6705 34.87 25.2731L60.5 5.69306L8.25 5.50056C7.52065 5.50056 6.82118 5.21083 6.30546 4.6951C5.78973 4.17938 5.5 3.4799 5.5 2.75056C5.5 2.02121 5.78973 1.32174 6.30546 0.806014C6.82118 0.290289 7.52065 0.000557222 8.25 0.000557222L60.5 0.000557222C61.6739 -0.0161492 62.8223 0.343197 63.7773 1.02603C64.7322 1.70887 65.4437 2.67936 65.8075 3.79556C66.1988 4.90236 66.2258 6.10535 65.8844 7.22856C65.5429 8.35177 64.8511 9.33627 63.91 10.0381L38.225 29.7006C36.7814 30.8083 35.0121 31.4078 33.1925 31.4056ZM66 41.2506L66 19.2506C66 18.5212 65.7103 17.8217 65.1945 17.306C64.6788 16.7903 63.9793 16.5006 63.25 16.5006C62.5207 16.5006 61.8212 16.7903 61.3055 17.306C60.7897 17.8217 60.5 18.5212 60.5 19.2506L60.5 41.2506C60.5 41.9799 60.2103 42.6794 59.6945 43.1951C59.1788 43.7108 58.4793 44.0006 57.75 44.0006L19.25 44.0006C18.5207 44.0006 17.8212 44.2903 17.3055 44.806C16.7897 45.3217 16.5 46.0212 16.5 46.7506C16.5 47.4799 16.7897 48.1794 17.3055 48.6951C17.8212 49.2108 18.5207 49.5006 19.25 49.5006L57.75 49.5006C59.938 49.5006 62.0365 48.6314 63.5836 47.0842C65.1308 45.537 66 43.4386 66 41.2506ZM22 13.7506C22 13.0212 21.7103 12.3217 21.1945 11.806C20.6788 11.2903 19.9793 11.0006 19.25 11.0006L2.75 11.0006C2.02065 11.0006 1.32118 11.2903 0.805456 11.806C0.289731 12.3217 7.44196e-16 13.0212 0 13.7506C5.72459e-16 14.4799 0.289731 15.1794 0.805456 15.6951C1.32118 16.2108 2.02065 16.5006 2.75 16.5006L19.25 16.5006C19.9793 16.5006 20.6788 16.2108 21.1945 15.6951C21.7103 15.1794 22 14.4799 22 13.7506ZM22 35.7506C22 35.0212 21.7103 34.3217 21.1945 33.806C20.6788 33.2903 19.9793 33.0006 19.25 33.0006L11 33.0006C10.2707 33.0006 9.57118 33.2903 9.05546 33.806C8.53973 34.3217 8.25 35.0212 8.25 35.7506C8.25 36.4799 8.53973 37.1794 9.05546 37.6951C9.57118 38.2108 10.2707 38.5006 11 38.5006L19.25 38.5006C19.9793 38.5006 20.6788 38.2108 21.1945 37.6951C21.7103 37.1794 22 36.4799 22 35.7506Z" fill="rgb(102,51,153)" fill-rule="nonzero" />
</svg>
