<svg viewBox="0 0 49 49" xmlns="http://www.w3.org/2000/svg" xmlns:xlink="http://www.w3.org/1999/xlink" width="49.000000" height="49.000000" fill="none" clip-path="url(#clipPath_0)" customFrame="url(#clipPath_0)">
	<defs>
		<clipPath id="clipPath_0">
			<rect width="49.000000" height="49.000000" x="0.000000" y="0.000000" rx="5.000000" fill="rgb(255,255,255)" />
		</clipPath>
	</defs>
	<rect id="Container" width="49.000000" height="49.000000" x="0.000000" y="0.000000" rx="5.000000" />
	<path id="Symbol" d="M41.6466 12.4797L36.5169 36.9031C36.1341 38.5875 35.0622 39.0469 33.6075 38.2047L25.7216 32.3859L21.97 36.0609C21.5106 36.5203 21.2044 36.8266 20.3622 36.8266L20.8981 28.7875L35.5216 15.6187C36.2106 15.0828 35.3684 14.7 34.5263 15.3125L16.4575 26.6437L8.72469 24.2703C7.04031 23.7344 6.96375 22.5859 9.03094 21.7437L39.5028 10.0297C40.8809 9.49375 42.1059 10.3359 41.6466 12.4797Z" fill="rgb(45,165,225)" fill-rule="nonzero" />
</svg>
