<svg viewBox="0 0 66.2227 57.75" xmlns="http://www.w3.org/2000/svg" xmlns:xlink="http://www.w3.org/1999/xlink" width="66.222656" height="57.750000" fill="none" customFrame="#000000">
	<path id="Like" d="M53.405 57.75L32.5325 57.75C30.3452 57.7481 28.2482 56.8776 26.7025 55.33L22.7975 51.4525C22.347 50.9264 22.1116 50.2497 22.1383 49.5576C22.165 48.8655 22.4519 48.209 22.9417 47.7192C23.4315 47.2295 24.088 46.9426 24.7801 46.9158C25.4722 46.8891 26.1489 47.1245 26.675 47.575L30.5525 51.4525C30.8095 51.7074 31.1142 51.909 31.4493 52.0459C31.7843 52.1828 32.1431 52.2521 32.505 52.25L53.3775 52.25C54.0094 52.2669 54.6279 52.0656 55.1287 51.6799C55.6296 51.2942 55.9823 50.7478 56.1275 50.1325L60.72 30.8825C60.817 30.4726 60.8186 30.0459 60.7246 29.6353C60.6306 29.2246 60.4435 28.8411 60.1777 28.5142C59.912 28.1874 59.5747 27.926 59.1919 27.7501C58.8092 27.5743 58.3911 27.4887 57.97 27.5L37.455 27.5C36.5189 27.4995 35.5984 27.2601 34.7807 26.8044C33.963 26.3488 33.2751 25.6919 32.7821 24.8961C32.2892 24.1003 32.0076 23.1918 31.9639 22.2567C31.9202 21.3216 32.1159 20.3908 32.5325 19.5525L37.29 10.065C37.5272 9.59112 37.6403 9.06483 37.6189 8.53533C37.5975 8.00582 37.4422 7.49039 37.1675 7.03719C36.8928 6.58399 36.5078 6.20782 36.0483 5.94381C35.5888 5.6798 35.0699 5.53658 34.54 5.52753L22.5775 23.32C20.3272 26.6907 18.939 30.5624 18.535 34.595L16.995 50.325C16.7898 52.3671 15.8308 54.2594 14.3053 55.6323C12.7798 57.0053 10.7973 57.7603 8.745 57.75L8.25 57.75C6.06196 57.75 3.96354 56.8808 2.41637 55.3337C0.869194 53.7865 1.83187e-15 51.6881 6.10623e-16 49.5L0 27.5C6.8695e-16 25.312 0.869194 23.2136 2.41637 21.6664C3.96354 20.1192 6.06196 19.25 8.25 19.25C8.97935 19.25 9.67882 19.5398 10.1945 20.0555C10.7103 20.5712 11 21.2707 11 22C11 22.7294 10.7103 23.4288 10.1945 23.9446C9.67882 24.4603 8.97935 24.75 8.25 24.75C7.52065 24.75 6.82118 25.0398 6.30546 25.5555C5.78973 26.0712 5.5 26.7707 5.5 27.5L5.5 49.5C5.5 50.2294 5.78973 50.9288 6.30546 51.4446C6.82118 51.9603 7.52065 52.25 8.25 52.25L8.7725 52.25C9.45661 52.2535 10.1174 52.0018 10.6259 51.5441C11.1344 51.0865 11.4541 50.4557 11.5225 49.775L13.09 34.045C13.5887 29.1297 15.2783 24.41 18.0125 20.295L29.8925 2.44753C30.3965 1.69216 31.0796 1.07332 31.881 0.646254C32.6823 0.219185 33.577 -0.00282982 34.485 2.72297e-05C35.9594 -0.00203046 37.4098 0.373478 38.698 1.09078C39.9861 1.80807 41.0692 2.84327 41.8439 4.09773C42.6186 5.35219 43.0593 6.78414 43.1238 8.25714C43.1883 9.73014 42.8746 11.1951 42.2125 12.5125L37.455 22L57.9975 22C59.24 22.004 60.4656 22.2886 61.5828 22.8325C62.6999 23.3764 63.6798 24.1657 64.4492 25.1413C65.2186 26.117 65.7577 27.2538 66.0262 28.467C66.2947 29.6802 66.2858 30.9383 66 32.1475L61.4075 51.3975C60.9812 53.2014 59.9598 54.8092 58.508 55.9617C57.0562 57.1141 55.2586 57.7441 53.405 57.75Z" fill="rgb(102,51,153)" fill-rule="nonzero" />
</svg>
