<svg viewBox="0 0 30 30" xmlns="http://www.w3.org/2000/svg" xmlns:xlink="http://www.w3.org/1999/xlink" width="30.000000" height="30.000000" fill="none" customFrame="#000000">
	<rect id="SVG" width="30.000000" height="30.000000" x="0.000000" y="-0.000977" />
	<path id="Vector" />
	<g id="Group">
		<g id="24/7 Support">
			<path id="Vector" d="M18.749 24.374C18.5928 25.2535 18.1308 26.0494 17.4446 26.6212C16.7584 27.193 15.8922 27.5039 14.999 27.499C11.3048 27.5034 7.75065 26.0854 5.07406 23.5391C2.39747 20.9929 0.803916 17.5139 0.624025 13.824C0.542775 12.324 0.830275 11.024 2.10527 10.074C2.5837 9.70292 3.14993 9.46178 3.74902 9.37402L8.12403 13.749C7.9749 14.6318 7.51487 15.4321 6.82711 16.0052C6.13934 16.5784 5.26921 16.8865 4.37402 16.874C4.93288 18.4612 5.84065 19.9028 7.03047 21.0926C8.2203 22.2824 9.66187 23.1902 11.249 23.749C11.2365 22.8538 11.5447 21.9837 12.1178 21.2959C12.691 20.6082 13.4913 20.1481 14.374 19.999L18.749 24.374Z" fill="rgb(157,204,107)" fill-rule="nonzero" />
			<path id="Vector" d="M18.75 24.374C18.6722 24.857 18.4956 25.3187 18.2313 25.7303L14.8875 22.3865C13.8312 21.3303 12.0813 22.7865 11.525 24.174C11.4619 24.354 11.3584 24.5172 11.2224 24.6511C11.0865 24.7849 10.9217 24.8859 10.7407 24.9462C10.5597 25.0065 10.3674 25.0246 10.1783 24.9991C9.98923 24.9736 9.80852 24.9052 9.65 24.799C7.04375 23.0303 4.6875 19.5303 3.75 16.874L4.375 16.874C4.93386 18.4612 5.84162 19.9028 7.03145 21.0926C8.22127 22.2824 9.66285 23.1902 11.25 23.749C11.2375 22.8538 11.5457 21.9837 12.1188 21.2959C12.6919 20.6082 13.4922 20.1481 14.375 19.999L18.75 24.374Z" fill="rgb(132,183,73)" fill-rule="nonzero" />
			<path id="Vector" d="M2.12564 11.9428C2.83814 11.3928 3.63189 11.1303 4.26314 11.7615L7.61314 15.1115C7.87593 14.6975 8.05041 14.2336 8.12564 13.749L3.75064 9.37402C3.15871 9.46303 2.59934 9.70184 2.12564 10.0678C0.625638 11.1803 0.538138 12.7053 0.681888 14.374C0.827457 13.4063 1.34558 12.5338 2.12564 11.9428Z" fill="rgb(181,224,140)" fill-rule="nonzero" />
			<path id="Vector" d="M29.375 4.99902C29.375 10.1428 29.5 10.4428 29.0375 11.249C28.8183 11.6287 28.5031 11.944 28.1235 12.1634C27.744 12.3828 27.3134 12.4986 26.875 12.499L23.75 12.499L17.5 16.249L17.5 12.499L13.125 12.499C12.462 12.499 11.8261 12.2356 11.3572 11.7668C10.8884 11.2979 10.625 10.6621 10.625 9.99902L10.625 4.99902C10.625 4.33598 10.8884 3.7001 11.3572 3.23126C11.8261 2.76242 12.462 2.49902 13.125 2.49902L26.875 2.49902C27.538 2.49902 28.1739 2.76242 28.6428 3.23126C29.1116 3.7001 29.375 4.33598 29.375 4.99902Z" fill="rgb(111,171,230)" fill-rule="nonzero" />
			<path id="Vector" d="M29.375 4.99902C29.375 10.1428 29.5 10.4428 29.0375 11.249L16.25 11.249C15.587 11.249 14.9511 10.9856 14.4822 10.5168C14.0134 10.0479 13.75 9.41206 13.75 8.74902L13.75 2.49902L26.875 2.49902C27.538 2.49902 28.1739 2.76242 28.6428 3.23126C29.1116 3.7001 29.375 4.33598 29.375 4.99902Z" fill="rgb(130,188,244)" fill-rule="nonzero" />
			<path id="Vector" d="M15.625 9.99902L13.6 9.99902C13.3083 9.99902 13.0285 9.88313 12.8222 9.67684C12.6159 9.47055 12.5 9.19076 12.5 8.89902C12.5 6.97402 14.7875 7.06152 15 6.24902L13.125 6.24902C12.9592 6.24902 12.8003 6.18318 12.6831 6.06597C12.5658 5.94875 12.5 5.78978 12.5 5.62402C12.5 5.45826 12.5658 5.29929 12.6831 5.18208C12.8003 5.06487 12.9592 4.99902 13.125 4.99902L15.15 4.99902C15.4417 4.99902 15.7215 5.11492 15.9278 5.32121C16.1341 5.5275 16.25 5.80729 16.25 6.09902C16.25 8.02402 13.9625 7.93652 13.75 8.74902L15.625 8.74902C15.7908 8.74902 15.9497 8.81487 16.0669 8.93208C16.1842 9.04929 16.25 9.20826 16.25 9.37402C16.25 9.53978 16.1842 9.69876 16.0669 9.81597C15.9497 9.93318 15.7908 9.99902 15.625 9.99902Z" fill="rgb(237,235,242)" fill-rule="nonzero" />
			<path id="Vector" d="M19.375 5.62402L19.375 6.87402L18.125 6.87402L18.125 5.62402C18.125 5.45826 18.0592 5.29929 17.9419 5.18208C17.8247 5.06487 17.6658 4.99902 17.5 4.99902C17.3342 4.99902 17.1753 5.06487 17.0581 5.18208C16.9408 5.29929 16.875 5.45826 16.875 5.62402L16.875 7.49902C16.875 7.66478 16.9408 7.82376 17.0581 7.94097C17.1753 8.05818 17.3342 8.12402 17.5 8.12402L19.375 8.12402L19.375 9.37402C19.375 9.53978 19.4408 9.69876 19.5581 9.81597C19.6753 9.93318 19.8342 9.99902 20 9.99902C20.1658 9.99902 20.3247 9.93318 20.4419 9.81597C20.5592 9.69876 20.625 9.53978 20.625 9.37402L20.625 5.62402C20.625 5.45826 20.5592 5.29929 20.4419 5.18208C20.3247 5.06487 20.1658 4.99902 20 4.99902C19.8342 4.99902 19.6753 5.06487 19.5581 5.18208C19.4408 5.29929 19.375 5.45826 19.375 5.62402Z" fill="rgb(237,235,242)" fill-rule="nonzero" />
			<path id="Vector" d="M24.4438 9.09265L25.8625 6.24889L25 6.24889C24.8342 6.24889 24.6753 6.18305 24.5581 6.06584C24.4408 5.94863 24.375 5.78966 24.375 5.62389C24.375 5.45813 24.4408 5.29916 24.5581 5.18195C24.6753 5.06474 24.8342 4.99889 25 4.99889C26.95 4.99889 27.1687 4.9114 27.4062 5.29264C27.6437 5.67389 27.575 5.61764 25.5312 9.66764C25.4409 9.78296 25.3128 9.86286 25.1695 9.89338C25.0262 9.92389 24.8767 9.90309 24.7472 9.8346C24.6177 9.76612 24.5163 9.6543 24.4609 9.51868C24.4054 9.38307 24.3993 9.23227 24.4438 9.09265Z" fill="rgb(237,235,242)" fill-rule="nonzero" />
			<path id="Vector" d="M21.2502 9.84919L22.5002 4.84919C22.54 4.68343 22.644 4.54027 22.7893 4.45119C22.8613 4.40708 22.9412 4.37758 23.0246 4.36437C23.1079 4.35116 23.1931 4.3545 23.2752 4.37419C23.3572 4.39389 23.4346 4.42956 23.5029 4.47917C23.5712 4.52878 23.6291 4.59135 23.6732 4.66332C23.7173 4.73528 23.7468 4.81523 23.76 4.8986C23.7732 4.98196 23.7699 5.06712 23.7502 5.14919L22.5002 10.1492C22.4805 10.2313 22.4448 10.3087 22.3952 10.377C22.3456 10.4452 22.283 10.5031 22.211 10.5472C22.1391 10.5913 22.0591 10.6208 21.9758 10.634C21.8924 10.6472 21.8072 10.6439 21.7252 10.6242C21.6431 10.6045 21.5657 10.5688 21.4974 10.5192C21.4291 10.4696 21.3713 10.407 21.3272 10.3351C21.2831 10.2631 21.2536 10.1832 21.2403 10.0998C21.2271 10.0164 21.2305 9.93127 21.2502 9.84919Z" fill="rgb(237,235,242)" fill-rule="nonzero" />
		</g>
	</g>
</svg>
