<svg viewBox="0 0 66 66" xmlns="http://www.w3.org/2000/svg" xmlns:xlink="http://www.w3.org/1999/xlink" width="66.000000" height="66.000000" fill="none" customFrame="#000000">
	<path id="Calendar" d="M57.75 66L8.25 66C6.06196 66 3.96354 65.1308 2.41637 63.5836C0.869194 62.0365 1.83187e-15 59.938 6.10623e-16 57.75L0 16.5C6.8695e-16 14.312 0.869194 12.2135 2.41637 10.6664C3.96354 9.11919 6.06196 8.25 8.25 8.25C8.97935 8.25 9.67882 7.96027 10.1945 7.44454C10.7103 6.92882 11 6.22935 11 5.5L11 2.75C11 2.02065 11.2897 1.32118 11.8055 0.805456C12.3212 0.289731 13.0207 9.15934e-16 13.75 2.28983e-16C14.4793 7.06032e-16 15.1788 0.289731 15.6945 0.805456C16.2103 1.32118 16.5 2.02065 16.5 2.75L16.5 5.5C16.5 7.68804 15.6308 9.78646 14.0836 11.3336C12.5365 12.8808 10.438 13.75 8.25 13.75C7.52065 13.75 6.82118 14.0397 6.30546 14.5555C5.78973 15.0712 5.5 15.7707 5.5 16.5L5.5 57.75C5.5 58.4793 5.78973 59.1788 6.30546 59.6945C6.82118 60.2103 7.52065 60.5 8.25 60.5L57.75 60.5C58.4793 60.5 59.1788 60.2103 59.6945 59.6945C60.2103 59.1788 60.5 58.4793 60.5 57.75L60.5 11C60.5 10.2707 60.7897 9.57118 61.3055 9.05546C61.8212 8.53973 62.5207 8.25 63.25 8.25C63.9793 8.25 64.6788 8.53973 65.1945 9.05546C65.7103 9.57118 66 10.2707 66 11L66 57.75C66 59.938 65.1308 62.0365 63.5836 63.5836C62.0365 65.1308 59.938 66 57.75 66ZM55 5.5L55 2.75C55 2.02065 54.7103 1.32118 54.1945 0.805456C53.6788 0.289731 52.9793 4.57967e-16 52.25 0C51.5207 5.34295e-16 50.8212 0.289731 50.3055 0.805456C49.7897 1.32118 49.5 2.02065 49.5 2.75L49.5 5.5C49.5 6.22935 49.2103 6.92882 48.6945 7.44454C48.1788 7.96027 47.4793 8.25 46.75 8.25L24.75 8.25C24.0207 8.25 23.3212 8.53973 22.8055 9.05546C22.2897 9.57118 22 10.2707 22 11C22 11.7293 22.2897 12.4288 22.8055 12.9445C23.3212 13.4603 24.0207 13.75 24.75 13.75L46.75 13.75C48.938 13.75 51.0365 12.8808 52.5836 11.3336C54.1308 9.78646 55 7.68804 55 5.5ZM16.5 24.75C15.9561 24.75 15.4244 24.9113 14.9722 25.2135C14.5199 25.5156 14.1675 25.9451 13.9593 26.4476C13.7512 26.9501 13.6967 27.5031 13.8028 28.0365C13.9089 28.5699 14.1709 29.0599 14.5555 29.4445C14.9401 29.8291 15.4301 30.091 15.9635 30.1972C16.497 30.3033 17.0499 30.2488 17.5524 30.0407C18.0549 29.8325 18.4844 29.4801 18.7865 29.0278C19.0887 28.5756 19.25 28.0439 19.25 27.5C19.25 26.7707 18.9603 26.0712 18.4445 25.5555C17.9288 25.0397 17.2293 24.75 16.5 24.75ZM27.5 24.75C26.9561 24.75 26.4244 24.9113 25.9722 25.2135C25.5199 25.5156 25.1675 25.9451 24.9593 26.4476C24.7512 26.9501 24.6967 27.5031 24.8028 28.0365C24.909 28.5699 25.1709 29.0599 25.5555 29.4445C25.9401 29.8291 26.4301 30.091 26.9635 30.1972C27.4969 30.3033 28.0499 30.2488 28.5524 30.0407C29.0549 29.8325 29.4844 29.4801 29.7865 29.0278C30.0887 28.5756 30.25 28.0439 30.25 27.5C30.25 26.7707 29.9603 26.0712 29.4445 25.5555C28.9288 25.0397 28.2293 24.75 27.5 24.75ZM38.5 24.75C37.9561 24.75 37.4244 24.9113 36.9722 25.2135C36.5199 25.5156 36.1675 25.9451 35.9593 26.4476C35.7512 26.9501 35.6967 27.5031 35.8028 28.0365C35.909 28.5699 36.1709 29.0599 36.5555 29.4445C36.9401 29.8291 37.4301 30.091 37.9635 30.1972C38.4969 30.3033 39.0499 30.2488 39.5524 30.0407C40.0549 29.8325 40.4844 29.4801 40.7865 29.0278C41.0887 28.5756 41.25 28.0439 41.25 27.5C41.25 26.7707 40.9603 26.0712 40.4445 25.5555C39.9288 25.0397 39.2293 24.75 38.5 24.75ZM49.5 24.75C48.9561 24.75 48.4244 24.9113 47.9722 25.2135C47.5199 25.5156 47.1675 25.9451 46.9593 26.4476C46.7512 26.9501 46.6967 27.5031 46.8028 28.0365C46.909 28.5699 47.1709 29.0599 47.5555 29.4445C47.94 29.8291 48.4301 30.091 48.9635 30.1972C49.4969 30.3033 50.0499 30.2488 50.5524 30.0407C51.0549 29.8325 51.4844 29.4801 51.7865 29.0278C52.0887 28.5756 52.25 28.0439 52.25 27.5C52.25 26.7707 51.9603 26.0712 51.4445 25.5555C50.9288 25.0397 50.2293 24.75 49.5 24.75ZM16.5 35.75C15.9561 35.75 15.4244 35.9113 14.9722 36.2135C14.5199 36.5156 14.1675 36.9451 13.9593 37.4476C13.7512 37.9501 13.6967 38.5031 13.8028 39.0365C13.9089 39.5699 14.1709 40.0599 14.5555 40.4445C14.9401 40.8291 15.4301 41.091 15.9635 41.1972C16.497 41.3033 17.0499 41.2488 17.5524 41.0407C18.0549 40.8325 18.4844 40.4801 18.7865 40.0278C19.0887 39.5756 19.25 39.0439 19.25 38.5C19.25 37.7707 18.9603 37.0712 18.4445 36.5555C17.9288 36.0397 17.2293 35.75 16.5 35.75ZM38.5 35.75C37.9561 35.75 37.4244 35.9113 36.9722 36.2135C36.5199 36.5156 36.1675 36.9451 35.9593 37.4476C35.7512 37.9501 35.6967 38.5031 35.8028 39.0365C35.909 39.5699 36.1709 40.0599 36.5555 40.4445C36.9401 40.8291 37.4301 41.091 37.9635 41.1972C38.4969 41.3033 39.0499 41.2488 39.5524 41.0407C40.0549 40.8325 40.4844 40.4801 40.7865 40.0278C41.0887 39.5756 41.25 39.0439 41.25 38.5C41.25 37.7707 40.9603 37.0712 40.4445 36.5555C39.9288 36.0397 39.2293 35.75 38.5 35.75ZM27.5 35.75C26.9561 35.75 26.4244 35.9113 25.9722 36.2135C25.5199 36.5156 25.1675 36.9451 24.9593 37.4476C24.7512 37.9501 24.6967 38.5031 24.8028 39.0365C24.909 39.5699 25.1709 40.0599 25.5555 40.4445C25.9401 40.8291 26.4301 41.091 26.9635 41.1972C27.4969 41.3033 28.0499 41.2488 28.5524 41.0407C29.0549 40.8325 29.4844 40.4801 29.7865 40.0278C30.0887 39.5756 30.25 39.0439 30.25 38.5C30.25 37.7707 29.9603 37.0712 29.4445 36.5555C28.9288 36.0397 28.2293 35.75 27.5 35.75ZM49.5 35.75C48.9561 35.75 48.4244 35.9113 47.9722 36.2135C47.5199 36.5156 47.1675 36.9451 46.9593 37.4476C46.7512 37.9501 46.6967 38.5031 46.8028 39.0365C46.909 39.5699 47.1709 40.0599 47.5555 40.4445C47.94 40.8291 48.4301 41.091 48.9635 41.1972C49.4969 41.3033 50.0499 41.2488 50.5524 41.0407C51.0549 40.8325 51.4844 40.4801 51.7865 40.0278C52.0887 39.5756 52.25 39.0439 52.25 38.5C52.25 37.7707 51.9603 37.0712 51.4445 36.5555C50.9288 36.0397 50.2293 35.75 49.5 35.75ZM16.5 46.75C15.9561 46.75 15.4244 46.9113 14.9722 47.2135C14.5199 47.5156 14.1675 47.9451 13.9593 48.4476C13.7512 48.9501 13.6967 49.5031 13.8028 50.0365C13.9089 50.5699 14.1709 51.06 14.5555 51.4445C14.9401 51.8291 15.4301 52.091 15.9635 52.1972C16.497 52.3033 17.0499 52.2488 17.5524 52.0407C18.0549 51.8325 18.4844 51.4801 18.7865 51.0278C19.0887 50.5756 19.25 50.0439 19.25 49.5C19.25 48.7707 18.9603 48.0712 18.4445 47.5555C17.9288 47.0397 17.2293 46.75 16.5 46.75ZM27.5 46.75C26.9561 46.75 26.4244 46.9113 25.9722 47.2135C25.5199 47.5156 25.1675 47.9451 24.9593 48.4476C24.7512 48.9501 24.6967 49.5031 24.8028 50.0365C24.909 50.5699 25.1709 51.06 25.5555 51.4445C25.9401 51.8291 26.4301 52.091 26.9635 52.1972C27.4969 52.3033 28.0499 52.2488 28.5524 52.0407C29.0549 51.8325 29.4844 51.4801 29.7865 51.0278C30.0887 50.5756 30.25 50.0439 30.25 49.5C30.25 48.7707 29.9603 48.0712 29.4445 47.5555C28.9288 47.0397 28.2293 46.75 27.5 46.75ZM38.5 46.75C37.9561 46.75 37.4244 46.9113 36.9722 47.2135C36.5199 47.5156 36.1675 47.9451 35.9593 48.4476C35.7512 48.9501 35.6967 49.5031 35.8028 50.0365C35.909 50.5699 36.1709 51.06 36.5555 51.4445C36.9401 51.8291 37.4301 52.091 37.9635 52.1972C38.4969 52.3033 39.0499 52.2488 39.5524 52.0407C40.0549 51.8325 40.4844 51.4801 40.7865 51.0278C41.0887 50.5756 41.25 50.0439 41.25 49.5C41.25 48.7707 40.9603 48.0712 40.4445 47.5555C39.9288 47.0397 39.2293 46.75 38.5 46.75Z" fill="rgb(102,51,153)" fill-rule="nonzero" />
</svg>
