<svg viewBox="0 0 40 40" xmlns="http://www.w3.org/2000/svg" xmlns:xlink="http://www.w3.org/1999/xlink" width="40.000000" height="40.000000" fill="none" clip-path="url(#clipPath_1)" customFrame="url(#clipPath_1)">
	<defs>
		<clipPath id="clipPath_1">
			<rect width="40.000000" height="40.000000" x="0.000000" y="0.000000" rx="5.000000" fill="rgb(255,255,255)" />
		</clipPath>
	</defs>
	<rect id="Container" width="40.000000" height="40.000000" x="0.000000" y="0.000000" rx="5.000000" />
	<path id="Symbol" d="M29.9344 10.125C32.5594 12.75 34.1844 16.1875 34.1844 19.9375C34.1844 27.5625 27.8094 33.8125 20.1219 33.8125L20.1219 33.8125C17.8094 33.8125 15.5594 33.1875 13.4969 32.125L6.18438 34L8.12188 26.8125C6.93438 24.75 6.24688 22.375 6.24688 19.875C6.24688 12.25 12.4969 6 20.1219 6C23.8719 6 27.3719 7.5 29.9344 10.125ZM20.1219 31.4375C26.4969 31.4375 31.8094 26.25 31.8094 19.9375C31.8094 16.8125 30.4969 13.9375 28.3094 11.75C26.1219 9.5625 23.2469 8.375 20.1844 8.375C13.8094 8.375 8.62188 13.5625 8.62188 19.875C8.62188 22.0625 9.24688 24.1875 10.3719 26.0625L10.6844 26.5L9.49688 30.75L13.8719 29.5625L14.2469 29.8125C16.0594 30.875 18.0594 31.4375 20.1219 31.4375ZM26.4969 22.8125C26.8094 23 27.0594 23.0625 27.1219 23.25C27.2469 23.375 27.2469 24.0625 26.9344 24.875C26.6219 25.6875 25.2469 26.4375 24.6219 26.5C23.4969 26.6875 22.6219 26.625 20.4344 25.625C16.9344 24.125 14.6844 20.625 14.4969 20.4375C14.3094 20.1875 13.1219 18.5625 13.1219 16.8125C13.1219 15.125 13.9969 14.3125 14.3094 13.9375C14.6219 13.5625 14.9969 13.5 15.2469 13.5C15.4344 13.5 15.6844 13.5 15.8719 13.5C16.1219 13.5 16.3719 13.4375 16.6844 14.125C16.9344 14.8125 17.6844 16.5 17.7469 16.6875C17.8094 16.875 17.8719 17.0625 17.7469 17.3125C17.1219 18.625 16.3719 18.5625 16.7469 19.1875C18.1219 21.5 19.4344 22.3125 21.4969 23.3125C21.8094 23.5 21.9969 23.4375 22.2469 23.25C22.4344 23 23.1219 22.1875 23.3094 21.875C23.5594 21.5 23.8094 21.5625 24.1219 21.6875C24.4344 21.8125 26.1219 22.625 26.4969 22.8125Z" fill="rgb(0,200,65)" fill-rule="nonzero" />
</svg>
