<svg viewBox="0 0 35 35" xmlns="http://www.w3.org/2000/svg" xmlns:xlink="http://www.w3.org/1999/xlink" width="35.000000" height="35.000000" fill="none" clip-path="url(#clipPath_2)" customFrame="url(#clipPath_2)">
	<defs>
		<clipPath id="clipPath_2">
			<rect width="35.000000" height="35.000000" x="0.000000" y="0.000000" rx="5.000000" fill="rgb(255,255,255)" />
		</clipPath>
	</defs>
	<rect id="Container" width="35.000000" height="35.000000" x="0.000000" y="0.000000" rx="5.000000" />
	<path id="Symbol" d="M26.2047 8.85938C28.5016 11.1562 29.9234 14.1641 29.9234 17.4453C29.9234 24.1172 24.3453 29.5859 17.6188 29.5859L17.6188 29.5859C15.5953 29.5859 13.6266 29.0391 11.8219 28.1094L5.42344 29.75L7.11875 23.4609C6.07969 21.6562 5.47813 19.5781 5.47813 17.3906C5.47813 10.7188 10.9469 5.25 17.6188 5.25C20.9 5.25 23.9625 6.5625 26.2047 8.85938ZM17.6188 27.5078C23.1969 27.5078 27.8453 22.9688 27.8453 17.4453C27.8453 14.7109 26.6969 12.1953 24.7828 10.2812C22.8688 8.36719 20.3531 7.32812 17.6734 7.32812C12.0953 7.32812 7.55625 11.8672 7.55625 17.3906C7.55625 19.3047 8.10313 21.1641 9.0875 22.8047L9.36094 23.1875L8.32188 26.9062L12.15 25.8672L12.4781 26.0859C14.0641 27.0156 15.8141 27.5078 17.6188 27.5078ZM23.1969 19.9609C23.4703 20.125 23.6891 20.1797 23.7438 20.3438C23.8531 20.4531 23.8531 21.0547 23.5797 21.7656C23.3063 22.4766 22.1031 23.1328 21.5563 23.1875C20.5719 23.3516 19.8063 23.2969 17.8922 22.4219C14.8297 21.1094 12.8609 18.0469 12.6969 17.8828C12.5328 17.6641 11.4938 16.2422 11.4938 14.7109C11.4938 13.2344 12.2594 12.5234 12.5328 12.1953C12.8063 11.8672 13.1344 11.8125 13.3531 11.8125C13.5172 11.8125 13.7359 11.8125 13.9 11.8125C14.1188 11.8125 14.3375 11.7578 14.6109 12.3594C14.8297 12.9609 15.4859 14.4375 15.5406 14.6016C15.5953 14.7656 15.65 14.9297 15.5406 15.1484C14.9938 16.2969 14.3375 16.2422 14.6656 16.7891C15.8688 18.8125 17.0172 19.5234 18.8219 20.3984C19.0953 20.5625 19.2594 20.5078 19.4781 20.3438C19.6422 20.125 20.2438 19.4141 20.4078 19.1406C20.6266 18.8125 20.8453 18.8672 21.1188 18.9766C21.3922 19.0859 22.8688 19.7969 23.1969 19.9609Z" fill="rgb(0,200,67)" fill-rule="nonzero" />
</svg>
