<svg viewBox="0 0 69.5879 69.5898" xmlns="http://www.w3.org/2000/svg" xmlns:xlink="http://www.w3.org/1999/xlink" width="69.587891" height="69.589844" fill="none" customFrame="#000000">
	<path id="Clock" d="M34.9449 69.5885C27.2163 69.6219 19.6964 67.0812 13.5718 62.3671C7.44723 57.653 3.06648 51.0339 1.12072 43.5541C-0.825039 36.0743 -0.225043 28.1596 2.82605 21.0586C5.87714 13.9576 11.2056 8.07453 17.9709 4.33759C24.7362 0.600655 32.5531 -0.777451 40.1884 0.420693C47.8237 1.61884 54.8427 5.32502 60.1382 10.9545C65.4337 16.5841 68.7041 23.8165 69.4335 31.5107C70.1629 39.205 68.3097 46.9231 64.1664 53.4474C63.9636 53.7678 63.6996 54.0451 63.3895 54.2635C63.0795 54.4819 62.7295 54.6371 62.3595 54.7202C61.9894 54.8033 61.6067 54.8127 61.233 54.7479C60.8593 54.6831 60.5021 54.5453 60.1817 54.3425C59.8613 54.1396 59.5839 53.8756 59.3656 53.5656C59.1472 53.2555 58.992 52.9055 58.9089 52.5355C58.8257 52.1655 58.8163 51.7827 58.8811 51.409C58.9459 51.0354 59.0837 50.6781 59.2866 50.3577C63.0904 44.3121 64.5184 37.0712 63.2948 30.034C62.0712 22.9969 58.2828 16.663 52.6615 12.2562C47.0403 7.8494 39.9851 5.68244 32.8594 6.17404C25.7336 6.66563 19.0429 9.78088 14.08 14.9179C9.11716 20.0549 6.2344 26.849 5.98875 33.9875C5.74309 41.126 8.15196 48.1022 12.7499 53.5682C17.3479 59.0342 23.8086 62.602 30.8838 63.5823C37.9589 64.5626 45.1463 62.8858 51.0572 58.8759C51.3814 58.6616 51.7446 58.5133 52.1261 58.4395C52.5077 58.3656 52.9 58.3676 53.2807 58.4454C53.6615 58.5231 54.0232 58.6751 54.3452 58.8926C54.6672 59.1102 54.9432 59.389 55.1574 59.7132C55.3717 60.0374 55.52 60.4007 55.5938 60.7822C55.6677 61.1637 55.6657 61.556 55.5879 61.9368C55.5102 62.3175 55.3582 62.6792 55.1407 63.0012C54.9231 63.3232 54.6443 63.5992 54.3201 63.8135C48.5794 67.6217 41.8338 69.6323 34.9449 69.5885ZM45.6287 45.6222C46.1665 45.0812 46.4683 44.3494 46.4683 43.5865C46.4683 42.8237 46.1665 42.0919 45.6287 41.5509L37.8324 33.7546L37.8324 17.6135C37.8324 16.8477 37.5282 16.1132 36.9867 15.5717C36.4452 15.0302 35.7107 14.726 34.9449 14.726C34.1791 14.726 33.4447 15.0302 32.9032 15.5717C32.3617 16.1132 32.0574 16.8477 32.0574 17.6135L32.0574 36.1224L41.5573 45.6222C42.0983 46.16 42.8302 46.4619 43.593 46.4619C44.3558 46.4619 45.0877 46.16 45.6287 45.6222Z" fill="rgb(102,51,153)" fill-rule="nonzero" />
</svg>
