<svg viewBox="0 0 40 40" xmlns="http://www.w3.org/2000/svg" xmlns:xlink="http://www.w3.org/1999/xlink" width="40.000000" height="40.000000" fill="none" clip-path="url(#clipPath_2)" customFrame="url(#clipPath_2)">
	<defs>
		<clipPath id="clipPath_2">
			<rect width="40.000000" height="40.000000" x="0.000000" y="0.000000" rx="5.000000" fill="rgb(255,255,255)" />
		</clipPath>
	</defs>
	<rect id="Container" width="40.000000" height="40.000000" x="0.000000" y="0.000000" rx="5.000000" />
	<path id="Symbol" d="M36.2172 11.375C35.7172 13.5 31.2172 19.875 31.2172 19.875C30.8422 20.5 30.6547 20.8125 31.2172 21.5C31.4672 21.8125 36.1547 26.3125 36.8422 28.4375C37.1547 29.5 36.6547 30 35.5922 30L31.9047 30C30.5297 30 30.0922 28.9375 27.5922 26.4375C25.4047 24.3125 24.4672 24 23.9047 24C22.7797 24 22.9672 24.4375 22.9672 28.625C22.9672 29.5 22.6547 30 20.3422 30C16.4672 30 12.1547 27.6875 9.09219 23.3125C4.52969 16.875 3.27969 12.0625 3.27969 11.0625C3.27969 10.5 3.52969 10 4.52969 10L8.21719 10C9.15469 10 9.52969 10.4375 9.90469 11.4375C11.7172 16.6875 14.7172 21.3125 15.9672 21.3125C16.4672 21.3125 16.6547 21.0625 16.6547 19.875L16.6547 14.4375C16.5297 11.9375 15.2172 11.75 15.2172 10.875C15.2172 10.4375 15.5297 10 16.1547 10L21.9047 10C22.7172 10 22.9672 10.4375 22.9672 11.375L22.9672 18.6875C22.9672 19.4375 23.3422 19.75 23.5297 19.75C24.0297 19.75 24.4047 19.4375 25.2797 18.625C27.9047 15.625 29.7797 11.0625 29.7797 11.0625C30.0297 10.5 30.4672 10 31.4047 10L35.0922 10C36.2172 10 36.4047 10.625 36.2172 11.375Z" fill="rgb(25,117,211)" fill-rule="nonzero" />
</svg>
