<svg viewBox="0 0 27.8672 22" xmlns="http://www.w3.org/2000/svg" xmlns:xlink="http://www.w3.org/1999/xlink" width="27.867188" height="22.000000" fill="none" customFrame="#000000">
	<path id="Symbol" d="M18.4445 11C18.6594 11 18.8312 11 19.0461 10.957L24.9328 9.23828L24.9328 16.8867C24.9328 17.5312 24.5031 18.0898 23.8586 18.2188L14.5773 20.582C14.1477 20.668 13.675 20.668 13.2453 20.582L3.96406 18.2188C3.3625 18.0898 2.93281 17.5312 2.93281 16.8867L2.93281 9.23828L8.81953 10.957C8.99141 11 9.16328 11.043 9.37813 11.043C10.1086 11.043 10.7961 10.6562 11.1398 10.0117L13.9328 5.41406L16.6828 10.0117C17.0266 10.6133 17.7141 11 18.4445 11ZM27.5969 6.1875C27.7687 6.57422 27.5969 7.04688 27.1672 7.17578L18.6594 9.625C18.3586 9.71094 18.0148 9.58203 17.843 9.32422L13.9328 2.75L24.675 1.41797C24.9758 1.375 25.2336 1.50391 25.3625 1.76172L27.5969 6.1875ZM2.46016 1.76172C2.58906 1.50391 2.84688 1.375 3.14766 1.41797L13.9328 2.75L9.97969 9.28125C9.80781 9.58203 9.46406 9.71094 9.16328 9.625L0.655469 7.17578C0.26875 7.04688 0.0539064 6.57422 0.225781 6.1875L2.46016 1.76172Z" fill="rgb(255,255,255)" fill-rule="nonzero" />
</svg>
