<svg viewBox="0 0 35 35" xmlns="http://www.w3.org/2000/svg" xmlns:xlink="http://www.w3.org/1999/xlink" width="35.000000" height="35.000000" fill="none" clip-path="url(#clipPath_1)" customFrame="url(#clipPath_1)">
	<defs>
		<clipPath id="clipPath_1">
			<rect width="35.000000" height="35.000000" x="0.000000" y="0.000000" rx="5.000000" fill="rgb(255,255,255)" />
		</clipPath>
	</defs>
	<rect id="Container" width="35.000000" height="35.000000" x="0.000000" y="0.000000" rx="5.000000" />
	<path id="Symbol" d="M29.8141 8.91406L26.15 26.3594C25.8766 27.5625 25.1109 27.8906 24.0719 27.2891L18.4391 23.1328L15.7594 25.7578C15.4313 26.0859 15.2125 26.3047 14.6109 26.3047L14.9938 20.5625L25.4391 11.1562C25.9313 10.7734 25.3297 10.5 24.7281 10.9375L11.8219 19.0312L6.29844 17.3359C5.09531 16.9531 5.04063 16.1328 6.51719 15.5312L28.2828 7.16406C29.2672 6.78125 30.1422 7.38281 29.8141 8.91406Z" fill="rgb(45,165,225)" fill-rule="nonzero" />
</svg>
