<svg viewBox="0 0 35 35" xmlns="http://www.w3.org/2000/svg" xmlns:xlink="http://www.w3.org/1999/xlink" width="35.000000" height="35.000000" fill="none" clip-path="url(#clipPath_0)" customFrame="url(#clipPath_0)">
	<defs>
		<clipPath id="clipPath_0">
			<rect width="35.000000" height="35.000000" x="0.000000" y="0.000000" rx="5.000000" fill="rgb(255,255,255)" />
		</clipPath>
	</defs>
	<rect id="Container" width="35.000000" height="35.000000" x="0.000000" y="0.000000" rx="5.000000" />
	<path id="Symbol" d="M31.75 9.95312C31.3125 11.8125 27.375 17.3906 27.375 17.3906C27.0469 17.9375 26.8828 18.2109 27.375 18.8125C27.5938 19.0859 31.6953 23.0234 32.2969 24.8828C32.5703 25.8125 32.1328 26.25 31.2031 26.25L27.9766 26.25C26.7734 26.25 26.3906 25.3203 24.2031 23.1328C22.2891 21.2734 21.4688 21 20.9766 21C19.9922 21 20.1562 21.3828 20.1562 25.0469C20.1562 25.8125 19.8828 26.25 17.8594 26.25C14.4688 26.25 10.6953 24.2266 8.01562 20.3984C4.02344 14.7656 2.92969 10.5547 2.92969 9.67969C2.92969 9.1875 3.14844 8.75 4.02344 8.75L7.25 8.75C8.07031 8.75 8.39844 9.13281 8.72656 10.0078C10.3125 14.6016 12.9375 18.6484 14.0312 18.6484C14.4688 18.6484 14.6328 18.4297 14.6328 17.3906L14.6328 12.6328C14.5234 10.4453 13.375 10.2812 13.375 9.51562C13.375 9.13281 13.6484 8.75 14.1953 8.75L19.2266 8.75C19.9375 8.75 20.1562 9.13281 20.1562 9.95312L20.1562 16.3516C20.1562 17.0078 20.4844 17.2812 20.6484 17.2812C21.0859 17.2812 21.4141 17.0078 22.1797 16.2969C24.4766 13.6719 26.1172 9.67969 26.1172 9.67969C26.3359 9.1875 26.7188 8.75 27.5391 8.75L30.7656 8.75C31.75 8.75 31.9141 9.29688 31.75 9.95312Z" fill="rgb(25,117,211)" fill-rule="nonzero" />
</svg>
